<?xml version="1.0" encoding="utf-8"?>
<?xml-stylesheet type="text/xsl" href="rss1.xsl"?>
<rss version="2.0" xmlns:atom="http://www.w3.org/2005/Atom" xmlns:content="http://purl.org/rss/1.0/modules/content/" xmlns:dc="http://purl.org/dc/elements/1.1/" xmlns:media="http://search.yahoo.com/mrss/">
<channel>
 <title>Getty</title>
 <link>http://www.gettyimg.com/</link>
 <atom:link href="http://www.gettyimg.com/" rel="self" type="application/rss+xml" />

 
                <item>
                <title><![CDATA[【HD Live Performances】WEB-RiP - Zara Larsson - Venus Tour Amsterdam WEBRIP 2160p Dolby Vision + Dolby Atmos]]></title>
                <link><![CDATA[https://sharemania.us/threads/zara-larsson-venus-tour-amsterdam-webrip-2160p-dolby-vision-dolby-atmos.241425/]]></link>
                <description><![CDATA[<article>
<blockquote class="messageText SelectQuoteContainer ugc baseHtml">
<img src="https://i.imgur.com/Qovs8JQ.jpg" class="bbCodeImage LbImage" alt="[​IMG]" data-url="https://i.imgur.com/Qovs8JQ.jpg" style=""><br>
<br>
<div class="bbCodeBlock bbCodeCode">
<div class="type">Code:</div>
<pre>General
Unique ID                      : 332903237110768674201387916923500037292 (0xFA72D4CFA6BB72679225AC577A5904AC)
Complete name                  : C:\Zara Larsson - Venus Tour Amsterdam WEBRIP 2160p h265 Dolby Vision + Dolby Atmos.mkv
Format                         : Matroska
Format version                 : Version 4
File size                      : 10.8 GiB
Duration                       : 1 h 14 min
Overall bit rate               : 20.8 Mb/s
Frame rate                     : 25.000 FPS
Encoded date                   : 2024-04-04 20:59:28 UTC
Writing application            : mkvmerge v82.0 ('I'm The President') 64-bit
Writing library                : libebml v1.4.5 + libmatroska v1.7.1

Video
ID                             : 1
Format                         : HEVC
Format/Info                    : High Efficiency Video Coding
Format profile                 : Main 10@L5@Main
HDR format                     : Dolby Vision, Version 1.0, Profile 5, dvhe.05.07, BL+RPU
Codec ID                       : V_MPEGH/ISO/HEVC
Duration                       : 1 h 14 min
Bit rate                       : 20.0 Mb/s
Width                          : 3 840 pixels
Height                         : 2 160 pixels
Display aspect ratio           : 16:9
Frame rate mode                : Constant
Frame rate                     : 25.000 FPS
Color space                    : YUV
Chroma subsampling             : 4:2:0
Bit depth                      : 10 bits
Bits/(Pixel*Frame)             : 0.096
Stream size                    : 10.4 GiB (96%)
Default                        : Yes
Forced                         : No
Color range                    : Full

Audio
ID                             : 2
Format                         : E-AC-3 JOC
Format/Info                    : Enhanced AC-3 with Joint Object Coding
Commercial name                : Dolby Digital Plus with Dolby Atmos
Codec ID                       : A_EAC3
Duration                       : 1 h 14 min
Bit rate mode                  : Constant
Bit rate                       : 768 kb/s
Channel(s)                     : 6 channels
Channel layout                 : L R C LFE Ls Rs
Sampling rate                  : 48.0 kHz
Frame rate                     : 31.250 FPS (1536 SPF)
Compression mode               : Lossy
Stream size                    : 409 MiB (4%)
Language                       : English
Service kind                   : Complete Main
Default                        : Yes
Forced                         : No
Complexity index               : 16
Number of dynamic objects      : 15
Bed channel count              : 1 channel
Bed channel configuration      : LFE

</pre>
</div><b><span style="font-size: 22px">Ripped by me from onair.events.</span></b><br>
<br>
I also have HDR+Dolby Digital plus version if anyone is interetested in that (it's 6GB).<br>
<div class="bbCodeBlock bbCodeVfcHH HiddenContent">
<div class="attribution type">Hidden Content:</div>
<blockquote>You must reply before you can see the hidden data contained here.</blockquote>
</div>
<div class="messageTextEndMarker">&nbsp;</div>
</blockquote>
</article>]]></description>
                <author><![CDATA[harmonizer54]]></author>
                </item>

                </channel></rss>